<?xml version="1.0" encoding="UTF-8" standalone="no"?>
<!DOCTYPE svg PUBLIC "-//W3C//DTD SVG 1.1//EN" "http://www.w3.org/Graphics/SVG/1.1/DTD/svg11.dtd">
<svg width="100%" height="100%" viewBox="0 0 1000 1000" version="1.1" xmlns="http://www.w3.org/2000/svg" xmlns:xlink="http://www.w3.org/1999/xlink" xml:space="preserve" xmlns:serif="http://www.serif.com/" style="fill-rule:evenodd;clip-rule:evenodd;stroke-linejoin:round;stroke-miterlimit:2;">
    <g transform="matrix(1.444626,0,0,1.444626,-129.471201,-263.847181)">
        <path d="M746.004,594.139L683.837,570.16C639.508,566.311 554.309,620.03 570.616,634.991C717.806,770.027 699.396,840.775 699.396,840.775C699.396,840.775 663.773,799.028 662.522,809.947C660.651,826.279 649.441,732.884 612.836,723.116C597.287,718.968 570.616,679.396 570.616,679.396C570.616,679.396 652.524,819.173 648.529,856.761C648.529,856.761 602.653,795.469 593.25,807.282C584.384,818.422 631.943,770.93 532.86,708.703C519.735,700.461 526.643,674.067 526.643,674.067C458.016,672.374 474.212,823.523 469.805,856.761C462.334,913.096 459.692,805.506 451.775,805.506C443.857,805.506 417.126,892.956 422.298,856.761C430.744,797.662 411.969,757.917 422.298,733.57C427.992,720.15 396.814,736.236 409.865,714.032C423.712,690.473 411.619,678.866 404.536,663.85C390.868,634.874 342.652,653.8 309.51,630.991C296.467,622.015 328.16,618.557 328.16,618.557C246.307,590.434 91.262,398.651 144.323,419.623C200.799,441.944 277.538,443.602 277.538,443.602C277.538,443.602 90.857,336.109 128.337,348.575C199.228,372.154 220.7,373.442 220.7,373.442C220.7,373.442 169.465,336.122 213.595,354.792C240.994,366.383 305.957,380.547 305.957,380.547C305.957,380.547 139.943,258.321 174.519,272.006C217.166,288.885 289.971,300.618 289.971,300.618C289.971,300.618 215.548,164.387 240.238,186.941C323.246,262.766 423.611,292.242 482.238,362.592C508.901,394.587 478.537,471.216 515.098,489.976C553.369,509.613 599.696,449.967 677.62,482.238C723.986,501.44 710.48,538.188 710.48,538.188C710.48,538.188 758.585,576.525 746.004,594.139Z" style="fill:rgb(223,208,184);"/>
    </g>
</svg>
